<svg width="906" height="602" viewBox="0 0 906 602" fill="none" xmlns="http://www.w3.org/2000/svg">
<path d="M3.28029 584.897C119.432 624.737 315.122 598.5 366.53 468.77L408.369 402.141C464.63 315.662 593.706 370.243 669.348 327.744C708.005 306.026 738.817 256.931 750.738 215.59C760.169 182.896 770.279 152.701 800.034 133.248C828.221 114.822 862.77 109.31 890.498 89.7172C898.701 83.9214 905.807 75.2062 905.996 65.157C906.232 52.4402 895.712 42.2921 885.318 34.9796C846.472 7.66125 792.326 -7.36182 745.26 3.61884C714.981 10.6818 689.414 31.3114 660.609 42.3911C629.779 54.2516 604.97 59.4731 572.069 59.4731C510.832 59.4731 452.225 70.002 397.008 97.8732C365.378 113.839 339.03 138.631 305.701 151.901C269.28 166.401 229.053 164.577 190.929 162.322C154.839 160.188 116.662 153.633 83.2948 172.365C54.0972 188.756 10.9445 212.441 -10.03 238.421C-8.91026 265.537 -18.0725 292.154 -19.3793 319.797C-21.2298 359.004 -18.4314 398.262 -17.6169 437.355C-16.9528 469.299 -12.8412 501.309 -9.56578 533.029C-8.3794 544.511 -6.58907 581.513 3.28029 584.897Z" fill="#FBDED0"/>
</svg>
