<svg width="100" height="100" viewBox="0 0 100 100" fill="none" xmlns="http://www.w3.org/2000/svg">
<rect width="100" height="100" fill="white"/>
<path d="M38.6903 68.3164L46.5344 60.4724L27.0767 41.0424C22.7528 45.3663 22.7528 52.3789 27.0767 56.7305L38.6903 68.3164V68.3164ZM57.4828 63.2996C61.7236 65.2675 67.6829 63.8816 72.0899 59.4745C77.384 54.1805 78.4095 46.5859 74.3351 42.5114C70.2883 38.4647 62.6937 39.4625 57.3719 44.7566C52.9649 49.1636 51.579 55.1229 53.5469 59.3637L26.4946 86.416L30.4028 90.3241L49.5002 71.2822L68.5698 90.3519L72.478 86.4437L53.4083 67.374L57.4828 63.2996V63.2996Z" fill="black"/>
<rect x="10.6956" y="42.4282" width="5.5435" height="55.435" fill="black"/>
<rect x="82.761" y="42.4282" width="5.5435" height="55.435" fill="black"/>
<rect width="5.52111" height="60.5229" transform="matrix(0.704227 0.709975 -0.704227 0.709975 49.6218 2)" fill="black"/>
<path fill-rule="evenodd" clip-rule="evenodd" d="M45.8342 6.04241L88.112 48.6652L92.0001 44.7454L49.7223 2.12256L45.8342 6.04241Z" fill="black"/>
</svg>
